<svg width="480" height="380" viewBox="0 0 480 380" fill="none" xmlns="http://www.w3.org/2000/svg">
<g filter="url(#filter0_d_1_61)">
<rect x="25" y="25" width="430" height="330" rx="10" fill="white"/>
</g>
<rect x="61" y="268.337" width="358" height="50.152" rx="2" fill="black"/>
<path d="M228.537 290.182H230.071C230.001 288.207 228.179 286.73 225.648 286.73C223.142 286.73 221.174 288.188 221.174 290.386C221.174 292.151 222.452 293.199 224.498 293.787L226.108 294.247C227.489 294.631 228.716 295.116 228.716 296.42C228.716 297.852 227.336 298.798 225.52 298.798C223.961 298.798 222.58 298.108 222.452 296.625H220.816C220.969 298.773 222.708 300.23 225.52 300.23C228.537 300.23 230.25 298.568 230.25 296.446C230.25 293.991 227.924 293.199 226.569 292.841L225.239 292.483C224.267 292.227 222.708 291.716 222.708 290.31C222.708 289.057 223.858 288.136 225.597 288.136C227.182 288.136 228.384 288.891 228.537 290.182ZM235.541 300.23C237.254 300.23 238.149 299.31 238.456 298.67H238.533V300H240.041V293.531C240.041 290.412 237.664 290.054 236.411 290.054C234.928 290.054 233.24 290.565 232.473 292.355L233.905 292.866C234.237 292.151 235.024 291.384 236.462 291.384C237.849 291.384 238.533 292.119 238.533 293.378V293.429C238.533 294.158 237.791 294.094 236.002 294.324C234.18 294.56 232.192 294.963 232.192 297.213C232.192 299.131 233.675 300.23 235.541 300.23ZM235.771 298.875C234.57 298.875 233.7 298.338 233.7 297.29C233.7 296.139 234.749 295.781 235.925 295.628C236.564 295.551 238.277 295.372 238.533 295.065V296.446C238.533 297.673 237.561 298.875 235.771 298.875ZM250.472 290.182H248.835L246.125 298.006H246.023L243.312 290.182H241.676L245.307 300H246.841L250.472 290.182ZM256.228 300.205C258.222 300.205 259.679 299.207 260.14 297.724L258.682 297.315C258.299 298.338 257.41 298.849 256.228 298.849C254.457 298.849 253.236 297.705 253.166 295.602H260.293V294.963C260.293 291.307 258.12 290.054 256.074 290.054C253.415 290.054 251.651 292.151 251.651 295.168C251.651 298.185 253.39 300.205 256.228 300.205ZM253.166 294.298C253.268 292.771 254.348 291.409 256.074 291.409C257.711 291.409 258.759 292.636 258.759 294.298H253.166Z" fill="white"/>
<line opacity="0.2" x1="61" y1="219.837" x2="419" y2="219.837" stroke="black"/>
<path d="M62.233 207H68.4574V205.906H63.4659V202.446H68.0597V201.352H63.4659V197.912H68.3778V196.818H62.233V207ZM71.3161 199.364H69.9638L72.3899 203.182L69.9638 207H71.3161L73.1456 204.037L74.9751 207H76.3274L73.8615 203.182L76.3274 199.364H74.9751L73.1456 202.486L71.3161 199.364ZM78.0016 209.864H79.1749V205.827H79.2743C79.5328 206.244 80.03 207.159 81.5016 207.159C83.4107 207.159 84.7431 205.628 84.7431 203.202C84.7431 200.795 83.4107 199.264 81.4817 199.264C79.9902 199.264 79.5328 200.179 79.2743 200.577H79.1351V199.364H78.0016V209.864ZM79.155 203.182C79.155 201.472 79.9107 200.318 81.3425 200.318C82.834 200.318 83.5698 201.571 83.5698 203.182C83.5698 204.812 82.8141 206.105 81.3425 206.105C79.9306 206.105 79.155 204.912 79.155 203.182ZM87.7061 196.818H86.5328V207H87.7061V196.818ZM92.9574 207.159C95.0256 207.159 96.4176 205.588 96.4176 203.222C96.4176 200.835 95.0256 199.264 92.9574 199.264C90.8892 199.264 89.4972 200.835 89.4972 203.222C89.4972 205.588 90.8892 207.159 92.9574 207.159ZM92.9574 206.105C91.3864 206.105 90.6705 204.753 90.6705 203.222C90.6705 201.69 91.3864 200.318 92.9574 200.318C94.5284 200.318 95.2443 201.69 95.2443 203.222C95.2443 204.753 94.5284 206.105 92.9574 206.105ZM98.2086 207H99.3819V202.168C99.3819 201.134 100.197 200.378 101.311 200.378C101.624 200.378 101.947 200.438 102.027 200.457V199.264C101.893 199.254 101.584 199.244 101.41 199.244C100.496 199.244 99.7001 199.761 99.4217 200.517H99.3422V199.364H98.2086V207ZM106.387 207.159C107.938 207.159 109.072 206.384 109.43 205.23L108.296 204.912C107.998 205.707 107.307 206.105 106.387 206.105C105.01 206.105 104.06 205.215 104.006 203.58H109.549V203.082C109.549 200.239 107.858 199.264 106.268 199.264C104.199 199.264 102.827 200.895 102.827 203.241C102.827 205.588 104.18 207.159 106.387 207.159ZM104.006 202.565C104.085 201.377 104.925 200.318 106.268 200.318C107.54 200.318 108.356 201.273 108.356 202.565H104.006ZM111.334 207H112.507V202.168C112.507 201.134 113.322 200.378 114.436 200.378C114.749 200.378 115.072 200.438 115.152 200.457V199.264C115.018 199.254 114.709 199.244 114.535 199.244C113.621 199.244 112.825 199.761 112.547 200.517H112.467V199.364H111.334V207Z" fill="black"/>
<line opacity="0.2" x1="61" y1="162.755" x2="419" y2="162.755" stroke="black"/>
<path d="M66.1307 139.818V147.097C66.1307 148.364 65.5241 149.045 64.4602 149.045C63.4908 149.045 62.7898 148.479 62.7898 147.614H61.5767C61.5767 149.18 62.7898 150.139 64.4602 150.139C66.2301 150.139 67.3636 149.05 67.3636 147.097V139.818H66.1307ZM71.9226 150.179C73.255 150.179 73.951 149.463 74.1896 148.966H74.2493V150H75.4226V144.969C75.4226 142.543 73.5732 142.264 72.5987 142.264C71.4453 142.264 70.1328 142.662 69.5362 144.054L70.6499 144.452C70.9084 143.895 71.5199 143.298 72.6385 143.298C73.7173 143.298 74.2493 143.87 74.2493 144.849V144.889C74.2493 145.456 73.6726 145.406 72.2805 145.585C70.8636 145.769 69.3175 146.082 69.3175 147.832C69.3175 149.324 70.4709 150.179 71.9226 150.179ZM72.1016 149.125C71.1669 149.125 70.4908 148.707 70.4908 147.892C70.4908 146.997 71.3061 146.719 72.2209 146.599C72.718 146.54 74.0504 146.401 74.2493 146.162V147.236C74.2493 148.19 73.4936 149.125 72.1016 149.125ZM80.6664 150.159C82.3567 150.159 83.4703 149.125 83.6692 147.773H82.4959C82.2772 148.608 81.5811 149.105 80.6664 149.105C79.2743 149.105 78.3794 147.952 78.3794 146.182C78.3794 144.452 79.2942 143.318 80.6664 143.318C81.7005 143.318 82.3169 143.955 82.4959 144.651H83.6692C83.4703 143.219 82.2573 142.264 80.6465 142.264C78.5783 142.264 77.2061 143.895 77.2061 146.222C77.2061 148.509 78.5186 150.159 80.6664 150.159ZM91.7679 152.864V142.364H90.6344V143.577H90.4952C90.2367 143.179 89.7793 142.264 88.2878 142.264C86.3588 142.264 85.0265 143.795 85.0265 146.202C85.0265 148.628 86.3588 150.159 88.2679 150.159C89.7395 150.159 90.2367 149.244 90.4952 148.827H90.5946V152.864H91.7679ZM90.6145 146.182C90.6145 147.912 89.839 149.105 88.427 149.105C86.9554 149.105 86.1998 147.812 86.1998 146.182C86.1998 144.571 86.9355 143.318 88.427 143.318C89.8588 143.318 90.6145 144.472 90.6145 146.182ZM98.7282 146.878C98.7282 148.31 97.6344 148.966 96.7594 148.966C95.785 148.966 95.089 148.25 95.089 147.136V142.364H93.9157V147.216C93.9157 149.165 94.9498 150.099 96.3816 150.099C97.535 150.099 98.2907 149.483 98.6486 148.707H98.7282V150H99.9015V142.364H98.7282V146.878ZM105.252 150.159C106.803 150.159 107.937 149.384 108.295 148.23L107.161 147.912C106.863 148.707 106.172 149.105 105.252 149.105C103.875 149.105 102.925 148.215 102.871 146.58H108.414V146.082C108.414 143.239 106.724 142.264 105.133 142.264C103.065 142.264 101.692 143.895 101.692 146.241C101.692 148.588 103.045 150.159 105.252 150.159ZM102.871 145.565C102.95 144.377 103.79 143.318 105.133 143.318C106.406 143.318 107.221 144.273 107.221 145.565H102.871ZM115.608 144.074C115.24 142.99 114.415 142.264 112.903 142.264C111.293 142.264 110.099 143.179 110.099 144.472C110.099 145.526 110.726 146.232 112.128 146.56L113.401 146.858C114.171 147.037 114.534 147.405 114.534 147.932C114.534 148.588 113.838 149.125 112.744 149.125C111.785 149.125 111.183 148.712 110.974 147.892L109.861 148.17C110.134 149.468 111.203 150.159 112.764 150.159C114.539 150.159 115.747 149.19 115.747 147.872C115.747 146.808 115.081 146.137 113.719 145.804L112.585 145.526C111.68 145.302 111.273 144.999 111.273 144.412C111.273 143.756 111.969 143.278 112.903 143.278C113.928 143.278 114.35 143.845 114.554 144.372L115.608 144.074ZM129.803 143C129.425 140.912 127.755 139.679 125.706 139.679C123.101 139.679 121.212 141.688 121.212 144.909C121.212 148.131 123.101 150.139 125.706 150.139C127.755 150.139 129.425 148.906 129.803 146.818H128.57C128.272 148.23 127.059 148.986 125.706 148.986C123.857 148.986 122.405 147.554 122.405 144.909C122.405 142.264 123.857 140.832 125.706 140.832C127.059 140.832 128.272 141.588 128.57 143H129.803ZM134.739 150.159C136.807 150.159 138.199 148.588 138.199 146.222C138.199 143.835 136.807 142.264 134.739 142.264C132.67 142.264 131.278 143.835 131.278 146.222C131.278 148.588 132.67 150.159 134.739 150.159ZM134.739 149.105C133.168 149.105 132.452 147.753 132.452 146.222C132.452 144.69 133.168 143.318 134.739 143.318C136.31 143.318 137.026 144.69 137.026 146.222C137.026 147.753 136.31 149.105 134.739 149.105ZM144.802 146.878C144.802 148.31 143.709 148.966 142.834 148.966C141.859 148.966 141.163 148.25 141.163 147.136V142.364H139.99V147.216C139.99 149.165 141.024 150.099 142.456 150.099C143.609 150.099 144.365 149.483 144.723 148.707H144.802V150H145.976V142.364H144.802V146.878ZM153.534 144.074C153.166 142.99 152.341 142.264 150.829 142.264C149.218 142.264 148.025 143.179 148.025 144.472C148.025 145.526 148.652 146.232 150.054 146.56L151.326 146.858C152.097 147.037 152.46 147.405 152.46 147.932C152.46 148.588 151.764 149.125 150.67 149.125C149.711 149.125 149.109 148.712 148.9 147.892L147.787 148.17C148.06 149.468 149.129 150.159 150.69 150.159C152.465 150.159 153.673 149.19 153.673 147.872C153.673 146.808 153.007 146.137 151.645 145.804L150.511 145.526C149.606 145.302 149.199 144.999 149.199 144.412C149.199 143.756 149.895 143.278 150.829 143.278C151.853 143.278 152.276 143.845 152.48 144.372L153.534 144.074ZM158.76 142.364H157.129V140.534H155.956V142.364H154.803V143.358H155.956V148.131C155.956 149.463 157.03 150.099 158.024 150.099C158.462 150.099 158.74 150.02 158.899 149.96L158.661 148.906C158.561 148.926 158.402 148.966 158.144 148.966C157.627 148.966 157.129 148.807 157.129 147.812V143.358H158.76V142.364ZM163.645 150.159C165.196 150.159 166.329 149.384 166.687 148.23L165.554 147.912C165.256 148.707 164.564 149.105 163.645 149.105C162.268 149.105 161.318 148.215 161.263 146.58H166.807V146.082C166.807 143.239 165.116 142.264 163.525 142.264C161.457 142.264 160.085 143.895 160.085 146.241C160.085 148.588 161.437 150.159 163.645 150.159ZM161.263 145.565C161.343 144.377 162.183 143.318 163.525 143.318C164.798 143.318 165.613 144.273 165.613 145.565H161.263ZM170.839 150.179C172.171 150.179 172.867 149.463 173.106 148.966H173.165V150H174.339V144.969C174.339 142.543 172.489 142.264 171.515 142.264C170.361 142.264 169.049 142.662 168.452 144.054L169.566 144.452C169.824 143.895 170.436 143.298 171.555 143.298C172.633 143.298 173.165 143.87 173.165 144.849V144.889C173.165 145.456 172.589 145.406 171.197 145.585C169.78 145.769 168.233 146.082 168.233 147.832C168.233 149.324 169.387 150.179 170.839 150.179ZM171.018 149.125C170.083 149.125 169.407 148.707 169.407 147.892C169.407 146.997 170.222 146.719 171.137 146.599C171.634 146.54 172.966 146.401 173.165 146.162V147.236C173.165 148.19 172.41 149.125 171.018 149.125ZM181.293 146.878C181.293 148.31 180.199 148.966 179.324 148.966C178.349 148.966 177.653 148.25 177.653 147.136V142.364H176.48V147.216C176.48 149.165 177.514 150.099 178.946 150.099C180.099 150.099 180.855 149.483 181.213 148.707H181.293V150H182.466V142.364H181.293V146.878Z" fill="black"/>
<path d="M62.125 82H74.6705V78.1818H66.8636V75.1818H74.0568V71.3636H66.8636V68.3636H74.7045V64.5455H62.125V82ZM81.8615 82.1705C83.7024 82.1705 84.9638 81.1818 85.5092 79.8523H85.6115V82H90.282V64.5455H85.5774V71.1932H85.5092C84.9979 69.8636 83.7706 68.7386 81.8274 68.7386C79.2365 68.7386 76.7138 70.7159 76.7138 75.4545C76.7138 79.9886 79.0661 82.1705 81.8615 82.1705ZM83.6001 78.5568C82.3047 78.5568 81.5547 77.3977 81.5547 75.4545C81.5547 73.5114 82.3047 72.3523 83.6001 72.3523C84.8956 72.3523 85.6797 73.5114 85.6797 75.4545C85.6797 77.3636 84.8956 78.5568 83.6001 78.5568ZM92.5916 82H97.2962V68.9091H92.5916V82ZM94.9439 67.5455C96.2223 67.5455 97.2621 66.5824 97.2621 65.3977C97.2621 64.2131 96.2223 63.25 94.9439 63.25C93.6655 63.25 92.6257 64.2131 92.6257 65.3977C92.6257 66.5824 93.6655 67.5455 94.9439 67.5455ZM107.5 68.9091H105.25V65.7727H100.545V68.9091H98.875V72.3182H100.545V78.233C100.511 80.9773 102.207 82.3665 105.455 82.1875C106.52 82.1278 107.312 81.9062 107.739 81.7784L107.057 78.4716C106.878 78.5142 106.418 78.608 106.136 78.608C105.523 78.608 105.25 78.3352 105.25 77.7898V72.3182H107.5V68.9091ZM114.201 86.9091H118.906V79.8523H118.974C119.519 81.1818 120.781 82.1705 122.621 82.1705C125.417 82.1705 127.769 79.9886 127.769 75.4545C127.769 70.7159 125.246 68.7386 122.656 68.7386C120.712 68.7386 119.485 69.8636 118.974 71.1932H118.871V68.9091H114.201V86.9091ZM118.803 75.4545C118.803 73.5114 119.587 72.3523 120.883 72.3523C122.178 72.3523 122.928 73.5114 122.928 75.4545C122.928 77.3977 122.178 78.5568 120.883 78.5568C119.587 78.5568 118.803 77.3636 118.803 75.4545ZM129.74 82H134.445V75.1818C134.445 73.6818 135.476 72.6932 136.865 72.6932C137.351 72.6932 138.135 72.7699 138.604 72.9318V68.9176C138.229 68.8068 137.82 68.7386 137.411 68.7386C136.013 68.7386 134.922 69.5568 134.445 71.3977H134.308V68.9091H129.74V82ZM145.703 82.2386C149.964 82.2386 152.487 79.5114 152.487 75.4886C152.487 71.4659 149.964 68.7386 145.703 68.7386C141.442 68.7386 138.919 71.4659 138.919 75.4886C138.919 79.5114 141.442 82.2386 145.703 82.2386ZM145.737 78.7614C144.476 78.7614 143.726 77.5085 143.726 75.4545C143.726 73.4006 144.476 72.1477 145.737 72.1477C146.93 72.1477 147.68 73.4006 147.68 75.4545C147.68 77.5085 146.93 78.7614 145.737 78.7614ZM162.237 68.9091H159.851V68.3295C159.851 67.7159 160.089 67.3068 160.976 67.3068C161.317 67.3068 161.828 67.375 162.169 67.4773L162.851 64.1023C162.305 63.9659 161.044 63.7273 159.851 63.7273C156.987 63.7273 155.146 65.2955 155.146 68.5341V68.9091H153.476V72.3182H155.146V82H159.851V72.3182H162.237V68.9091ZM164.053 82H168.757V68.9091H164.053V82ZM166.405 67.5455C167.683 67.5455 168.723 66.5824 168.723 65.3977C168.723 64.2131 167.683 63.25 166.405 63.25C165.126 63.25 164.087 64.2131 164.087 65.3977C164.087 66.5824 165.126 67.5455 166.405 67.5455ZM175.859 64.5455H171.154V82H175.859V64.5455ZM184.528 82.2386C188.159 82.2386 190.494 80.5 190.938 77.7727H186.642C186.369 78.5142 185.594 78.9318 184.631 78.9318C183.233 78.9318 182.415 78.0114 182.415 76.75V76.5455H190.938V75.4545C190.938 71.2869 188.381 68.7386 184.426 68.7386C180.369 68.7386 177.778 71.4318 177.778 75.4886C177.778 79.7244 180.335 82.2386 184.528 82.2386ZM182.415 73.9545C182.44 72.821 183.378 72.0455 184.528 72.0455C185.696 72.0455 186.582 72.8295 186.608 73.9545H182.415Z" fill="black"/>
<defs>
<filter id="filter0_d_1_61" x="0" y="0" width="480" height="380" filterUnits="userSpaceOnUse" color-interpolation-filters="sRGB">
<feFlood flood-opacity="0" result="BackgroundImageFix"/>
<feColorMatrix in="SourceAlpha" type="matrix" values="0 0 0 0 0 0 0 0 0 0 0 0 0 0 0 0 0 0 127 0" result="hardAlpha"/>
<feOffset/>
<feGaussianBlur stdDeviation="12.5"/>
<feColorMatrix type="matrix" values="0 0 0 0 0 0 0 0 0 0 0 0 0 0 0 0 0 0 0.15 0"/>
<feBlend mode="normal" in2="BackgroundImageFix" result="effect1_dropShadow_1_61"/>
<feBlend mode="normal" in="SourceGraphic" in2="effect1_dropShadow_1_61" result="shape"/>
</filter>
</defs>
</svg>
